<svg width="36" height="36" viewBox="0 0 36 36" fill="none" xmlns="http://www.w3.org/2000/svg">
<path fill-rule="evenodd" clip-rule="evenodd" d="M18 0C8.0589 0 0 8.0589 0 18C0 27.9411 8.0589 36 18 36C27.9411 36 36 27.9411 36 18C36 8.0589 27.9411 0 18 0ZM14.0425 8.45798C15.0665 8.4114 15.3937 8.4 18.0009 8.4H17.9979C20.6059 8.4 20.9319 8.4114 21.9559 8.45798C22.978 8.50478 23.6759 8.66663 24.288 8.904C24.9199 9.14902 25.454 9.477 25.9879 10.011C26.522 10.5446 26.85 11.0802 27.096 11.7116C27.332 12.3221 27.494 13.0196 27.542 14.0417C27.588 15.0657 27.6 15.3928 27.6 18.0001C27.6 20.6073 27.588 20.9337 27.542 21.9578C27.494 22.9793 27.332 23.6771 27.096 24.2878C26.85 24.919 26.522 25.4546 25.9879 25.9882C25.4545 26.5222 24.9198 26.851 24.2886 27.0962C23.6777 27.3336 22.9793 27.4954 21.9574 27.5422C20.9333 27.5888 20.6071 27.6002 17.9997 27.6002C15.3927 27.6002 15.0657 27.5888 14.0417 27.5422C13.0198 27.4954 12.3221 27.3336 11.7113 27.0962C11.0802 26.851 10.5446 26.5222 10.0112 25.9882C9.47738 25.4546 9.1494 24.919 8.904 24.2875C8.66677 23.6771 8.505 22.9795 8.45798 21.9575C8.41162 20.9335 8.4 20.6073 8.4 18.0001C8.4 15.3928 8.412 15.0655 8.45782 14.0414C8.5038 13.0199 8.6658 12.3221 8.90378 11.7114C9.14978 11.0802 9.47783 10.5446 10.0118 10.011C10.5455 9.47722 11.081 9.14917 11.7125 8.904C12.3229 8.66663 13.0205 8.50478 14.0425 8.45798Z" fill="#A5A815"/>
<path fill-rule="evenodd" clip-rule="evenodd" d="M17.1398 10.1301C17.3069 10.1299 17.4869 10.1299 17.681 10.13L18.001 10.1301C20.5642 10.1301 20.868 10.1393 21.8802 10.1853C22.8162 10.2281 23.3242 10.3845 23.6626 10.5159C24.1106 10.6899 24.43 10.8979 24.7658 11.2339C25.1018 11.5699 25.3098 11.89 25.4843 12.3379C25.6157 12.676 25.7723 13.1839 25.8149 14.1199C25.8608 15.132 25.8708 15.436 25.8708 17.998C25.8708 20.56 25.8608 20.864 25.8149 21.8761C25.772 22.8121 25.6157 23.32 25.4843 23.6581C25.3103 24.106 25.1018 24.4251 24.7658 24.7609C24.4298 25.0969 24.1108 25.3049 23.6626 25.4789C23.3246 25.6109 22.8162 25.7669 21.8802 25.8097C20.8682 25.8557 20.5642 25.8657 18.001 25.8657C15.4376 25.8657 15.1337 25.8557 14.1217 25.8097C13.1857 25.7665 12.6777 25.6101 12.3391 25.4787C11.8911 25.3047 11.5711 25.0966 11.2351 24.7606C10.8991 24.4246 10.6911 24.1054 10.5167 23.6572C10.3853 23.3193 10.2287 22.8112 10.1861 21.8752C10.1401 20.8633 10.1309 20.5592 10.1309 17.9956C10.1309 15.432 10.1401 15.1296 10.1861 14.1175C10.2289 13.1815 10.3853 12.6736 10.5167 12.3352C10.6907 11.8871 10.8991 11.5672 11.2351 11.2312C11.5711 10.8952 11.8911 10.6871 12.3391 10.5127C12.6775 10.3807 13.1857 10.2247 14.1217 10.1817C15.0073 10.1417 15.3506 10.1297 17.1398 10.1277V10.1301ZM23.1254 11.7241C22.4894 11.7241 21.9734 12.2395 21.9734 12.8758C21.9734 13.5118 22.4894 14.0278 23.1254 14.0278C23.7614 14.0278 24.2774 13.5118 24.2774 12.8758C24.2774 12.2398 23.7614 11.7238 23.1254 11.7238V11.7241ZM13.0709 18.0002C13.0709 15.2776 15.2782 13.0702 18.0008 13.0702C20.7234 13.0702 22.9302 15.2776 22.9302 18.0002C22.9302 20.7229 20.7236 22.9293 18.001 22.9293C15.2783 22.9293 13.0709 20.7229 13.0709 18.0002Z" fill="#A5A815"/>
<path d="M18.0009 14.8C19.7682 14.8 21.201 16.2327 21.201 18.0001C21.201 19.7673 19.7682 21.2001 18.0009 21.2001C16.2336 21.2001 14.8009 19.7673 14.8009 18.0001C14.8009 16.2327 16.2336 14.8 18.0009 14.8Z" fill="#A5A815"/>
</svg>
